<svg width="14" height="14" viewBox="0 0 14 14" fill="none" xmlns="http://www.w3.org/2000/svg">
<path d="M3.06258 6.41666C2.82096 6.41666 2.62508 6.61254 2.62508 6.85416C2.62508 7.07565 2.78967 7.2587 3.00322 7.28767L3.06258 7.29166H11.2292C11.4709 7.29166 11.6667 7.09579 11.6667 6.85416C11.6667 6.63267 11.5022 6.44963 11.2886 6.42066L11.2292 6.41666H3.06258Z" fill="#212121"/>
<path d="M11.5386 6.5448C11.3833 6.38948 11.1402 6.37536 10.969 6.50244L10.9199 6.5448L8.58656 8.87814C8.4157 9.04899 8.4157 9.326 8.58656 9.49685C8.74188 9.65218 8.98493 9.6663 9.15621 9.53922L9.20527 9.49685L11.5386 7.16352C11.7095 6.99267 11.7095 6.71566 11.5386 6.5448Z" fill="#212121"/>
<path d="M9.20527 4.21147C9.03442 4.04061 8.75741 4.04061 8.58656 4.21147C8.43123 4.36679 8.41711 4.60985 8.5442 4.78112L8.58656 4.83019L10.9199 7.16352C11.0907 7.33438 11.3678 7.33438 11.5386 7.16352C11.6939 7.0082 11.708 6.76514 11.581 6.59387L11.5386 6.5448L9.20527 4.21147Z" fill="#212121"/>
</svg>
