<svg width="19" height="19" viewBox="0 0 19 19" fill="none" xmlns="http://www.w3.org/2000/svg">
<path fill-rule="evenodd" clip-rule="evenodd" d="M10.411 0.794604C10.3501 0.345866 9.96543 0 9.5 0C8.99225 0 8.58065 0.411609 8.58065 0.919355V8.58065H0.919355L0.794604 8.58904C0.345866 8.64991 0 9.03457 0 9.5C0 10.0077 0.411609 10.4194 0.919355 10.4194H8.58065V18.0806L8.58904 18.2054C8.64991 18.6541 9.03457 19 9.5 19C10.0077 19 10.4194 18.5884 10.4194 18.0806V10.4194H18.0806L18.2054 10.411C18.6541 10.3501 19 9.96543 19 9.5C19 8.99225 18.5884 8.58065 18.0806 8.58065H10.4194V0.919355L10.411 0.794604Z" fill="#212121"/>
</svg>
